<svg width="55" height="55" viewBox="0 0 55 55" fill="none" xmlns="http://www.w3.org/2000/svg">
<rect width="55" height="55" rx="10" fill="#EBEEFF"/>
<path d="M40.6142 39.0598H16.3217C16.2194 39.0598 16.1212 39.0191 16.0489 38.9468C15.9765 38.8744 15.9359 38.7763 15.9359 38.6739V14.3814C15.9359 14.2791 15.9765 14.181 16.0489 14.1086C16.1212 14.0363 16.2194 13.9956 16.3217 13.9956C16.424 13.9956 16.5222 14.0363 16.5945 14.1086C16.6669 14.181 16.7075 14.2791 16.7075 14.3814V38.2881H40.6142C40.7165 38.2881 40.8146 38.3287 40.887 38.4011C40.9594 38.4735 41 38.5716 41 38.6739C41 38.7763 40.9594 38.8744 40.887 38.9468C40.8146 39.0191 40.7165 39.0598 40.6142 39.0598Z" fill="#6A7BDE"/>
<path d="M38.6695 41.0044C38.5932 41.0044 38.5186 40.9817 38.4552 40.9393C38.3918 40.8969 38.3423 40.8367 38.3131 40.7662C38.2839 40.6957 38.2763 40.6181 38.2912 40.5433C38.306 40.4685 38.3428 40.3997 38.3967 40.3458L40.0686 38.6739L38.3967 37.0025C38.3264 36.9297 38.2875 36.8322 38.2884 36.7311C38.2893 36.6299 38.3299 36.5331 38.4014 36.4616C38.473 36.39 38.5697 36.3495 38.6709 36.3486C38.7721 36.3477 38.8695 36.3866 38.9423 36.4569L40.8869 38.4011C40.9593 38.4735 40.9999 38.5716 40.9999 38.6739C40.9999 38.7762 40.9593 38.8744 40.8869 38.9467L38.9423 40.8913C38.87 40.9637 38.7718 41.0044 38.6695 41.0044Z" fill="#6A7BDE"/>
<path d="M18.2659 16.7119C18.1636 16.7119 18.0655 16.6712 17.9931 16.5989L16.3217 14.927L14.6498 16.5989C14.5771 16.6692 14.4796 16.708 14.3784 16.7072C14.2773 16.7063 14.1805 16.6657 14.109 16.5942C14.0374 16.5226 13.9968 16.4259 13.996 16.3247C13.9951 16.2235 14.034 16.1261 14.1043 16.0533L16.0489 14.1087C16.1212 14.0363 16.2194 13.9956 16.3217 13.9956C16.424 13.9956 16.5221 14.0363 16.5945 14.1087L18.5387 16.0533C18.5927 16.1073 18.6294 16.176 18.6443 16.2508C18.6592 16.3257 18.6515 16.4032 18.6223 16.4737C18.5931 16.5442 18.5437 16.6045 18.4802 16.6469C18.4168 16.6893 18.3422 16.7119 18.2659 16.7119Z" fill="#6A7BDE"/>
<path d="M35.9841 33.6735H32.6118C32.5095 33.6735 32.4114 33.6328 32.339 33.5605C32.2666 33.4881 32.226 33.39 32.226 33.2876V20.5549C32.226 20.4526 32.2666 20.3544 32.339 20.2821C32.4114 20.2097 32.5095 20.1691 32.6118 20.1691H35.9841C36.0864 20.1691 36.1845 20.2097 36.2569 20.2821C36.3293 20.3544 36.3699 20.4526 36.3699 20.5549V22.6886C36.3699 22.7909 36.3293 22.8891 36.2569 22.9614C36.1845 23.0338 36.0864 23.0744 35.9841 23.0744C35.8817 23.0744 35.7836 23.0338 35.7112 22.9614C35.6389 22.8891 35.5982 22.7909 35.5982 22.6886V20.9407H32.9977V32.9018H35.5982V29.2247C35.5982 29.1224 35.6389 29.0243 35.7112 28.9519C35.7836 28.8795 35.8817 28.8389 35.9841 28.8389C36.0864 28.8389 36.1845 28.8795 36.2569 28.9519C36.3293 29.0243 36.3699 29.1224 36.3699 29.2247V33.2876C36.3699 33.39 36.3293 33.4881 36.2569 33.5605C36.1845 33.6328 36.0864 33.6735 35.9841 33.6735Z" fill="#6A7BDE"/>
<path d="M35.9841 26.9097C35.8817 26.9097 35.7836 26.8691 35.7112 26.7967C35.6389 26.7243 35.5982 26.6262 35.5982 26.5239V25.3895C35.5982 25.2872 35.6389 25.189 35.7112 25.1167C35.7836 25.0443 35.8817 25.0037 35.9841 25.0037C36.0864 25.0037 36.1845 25.0443 36.2569 25.1167C36.3293 25.189 36.3699 25.2872 36.3699 25.3895V26.5239C36.3699 26.6262 36.3293 26.7243 36.2569 26.7967C36.1845 26.8691 36.0864 26.9097 35.9841 26.9097Z" fill="#6A7BDE"/>
<path d="M30.1795 33.6734H26.8091C26.7068 33.6734 26.6087 33.6328 26.5363 33.5604C26.464 33.488 26.4233 33.3899 26.4233 33.2876V23.1762C26.4233 23.0739 26.464 22.9758 26.5363 22.9034C26.6087 22.8311 26.7068 22.7904 26.8091 22.7904H30.1795C30.2818 22.7904 30.3799 22.8311 30.4523 22.9034C30.5246 22.9758 30.5653 23.0739 30.5653 23.1762V33.2876C30.5653 33.3899 30.5246 33.488 30.4523 33.5604C30.3799 33.6328 30.2818 33.6734 30.1795 33.6734ZM27.195 32.9017H29.7936V23.5621H27.195V32.9017Z" fill="#6A7BDE"/>
<path d="M24.3749 33.6735H21.0046C20.9023 33.6735 20.8041 33.6329 20.7318 33.5605C20.6594 33.4882 20.6188 33.39 20.6188 33.2877V26.5467C20.6188 26.4443 20.6594 26.3462 20.7318 26.2738C20.8041 26.2015 20.9023 26.1608 21.0046 26.1608H24.3749C24.4773 26.1608 24.5754 26.2015 24.6478 26.2738C24.7201 26.3462 24.7608 26.4443 24.7608 26.5467V33.2877C24.7608 33.39 24.7201 33.4882 24.6478 33.5605C24.5754 33.6329 24.4773 33.6735 24.3749 33.6735ZM21.3905 32.9018H23.9891V26.9325H21.3905V32.9018Z" fill="#6A7BDE"/>
<path d="M19.7788 39.0598C19.6765 39.0598 19.5783 39.0192 19.506 38.9468C19.4336 38.8745 19.3929 38.7763 19.3929 38.674V37.5014C19.3929 37.3991 19.4336 37.301 19.506 37.2286C19.5783 37.1563 19.6765 37.1156 19.7788 37.1156C19.8811 37.1156 19.9793 37.1563 20.0516 37.2286C20.124 37.301 20.1646 37.3991 20.1646 37.5014V38.674C20.1646 38.7763 20.124 38.8745 20.0516 38.9468C19.9793 39.0192 19.8811 39.0598 19.7788 39.0598Z" fill="#6A7BDE"/>
<path d="M22.8401 39.0598C22.7377 39.0598 22.6396 39.0191 22.5672 38.9468C22.4949 38.8744 22.4542 38.7763 22.4542 38.674V36.7297C22.4542 36.6274 22.4949 36.5292 22.5672 36.4569C22.6396 36.3845 22.7377 36.3439 22.8401 36.3439C22.9424 36.3439 23.0405 36.3845 23.1129 36.4569C23.1853 36.5292 23.2259 36.6274 23.2259 36.7297V38.674C23.2259 38.7763 23.1853 38.8744 23.1129 38.9468C23.0405 39.0191 22.9424 39.0598 22.8401 39.0598Z" fill="#6A7BDE"/>
<path d="M25.9005 39.0598C25.7982 39.0598 25.7 39.0192 25.6277 38.9468C25.5553 38.8745 25.5147 38.7763 25.5147 38.674V37.5014C25.5147 37.3991 25.5553 37.301 25.6277 37.2286C25.7 37.1563 25.7982 37.1156 25.9005 37.1156C26.0029 37.1156 26.101 37.1563 26.1734 37.2286C26.2457 37.301 26.2864 37.3991 26.2864 37.5014V38.674C26.2864 38.7763 26.2457 38.8745 26.1734 38.9468C26.101 39.0192 26.0029 39.0598 25.9005 39.0598Z" fill="#6A7BDE"/>
<path d="M28.9618 39.0598C28.8595 39.0598 28.7613 39.0191 28.689 38.9468C28.6166 38.8744 28.576 38.7763 28.576 38.674V36.7297C28.576 36.6274 28.6166 36.5292 28.689 36.4569C28.7613 36.3845 28.8595 36.3439 28.9618 36.3439C29.0641 36.3439 29.1623 36.3845 29.2346 36.4569C29.307 36.5292 29.3476 36.6274 29.3476 36.7297V38.674C29.3476 38.7763 29.307 38.8744 29.2346 38.9468C29.1623 39.0191 29.0641 39.0598 28.9618 39.0598Z" fill="#6A7BDE"/>
<path d="M32.0227 39.0598C31.9204 39.0598 31.8222 39.0192 31.7499 38.9468C31.6775 38.8745 31.6368 38.7763 31.6368 38.674V37.5014C31.6368 37.3991 31.6775 37.301 31.7499 37.2286C31.8222 37.1563 31.9204 37.1156 32.0227 37.1156C32.125 37.1156 32.2232 37.1563 32.2955 37.2286C32.3679 37.301 32.4085 37.3991 32.4085 37.5014V38.674C32.4085 38.7763 32.3679 38.8745 32.2955 38.9468C32.2232 39.0192 32.125 39.0598 32.0227 39.0598Z" fill="#6A7BDE"/>
<path d="M35.0839 39.0598C34.9816 39.0598 34.8834 39.0191 34.8111 38.9468C34.7387 38.8744 34.6981 38.7763 34.6981 38.674V36.7297C34.6981 36.6274 34.7387 36.5292 34.8111 36.4569C34.8834 36.3845 34.9816 36.3439 35.0839 36.3439C35.1862 36.3439 35.2844 36.3845 35.3567 36.4569C35.4291 36.5292 35.4697 36.6274 35.4697 36.7297V38.674C35.4697 38.7763 35.4291 38.8744 35.3567 38.9468C35.2844 39.0191 35.1862 39.0598 35.0839 39.0598Z" fill="#6A7BDE"/>
<path d="M17.4792 35.7235H16.3063C16.2039 35.7235 16.1058 35.6828 16.0334 35.6105C15.9611 35.5381 15.9204 35.44 15.9204 35.3376C15.9204 35.2353 15.9611 35.1372 16.0334 35.0648C16.1058 34.9924 16.2039 34.9518 16.3063 34.9518H17.4792C17.5815 34.9518 17.6797 34.9924 17.752 35.0648C17.8244 35.1372 17.865 35.2353 17.865 35.3376C17.865 35.44 17.8244 35.5381 17.752 35.6105C17.6797 35.6828 17.5815 35.7235 17.4792 35.7235Z" fill="#6A7BDE"/>
<path d="M18.2509 32.6626H16.3063C16.2039 32.6626 16.1058 32.6219 16.0334 32.5495C15.9611 32.4772 15.9204 32.379 15.9204 32.2767C15.9204 32.1744 15.9611 32.0762 16.0334 32.0039C16.1058 31.9315 16.2039 31.8909 16.3063 31.8909H18.2509C18.3532 31.8909 18.4514 31.9315 18.5237 32.0039C18.5961 32.0762 18.6367 32.1744 18.6367 32.2767C18.6367 32.379 18.5961 32.4772 18.5237 32.5495C18.4514 32.6219 18.3532 32.6626 18.2509 32.6626Z" fill="#6A7BDE"/>
<path d="M17.4792 29.6017H16.3063C16.2039 29.6017 16.1058 29.561 16.0334 29.4887C15.9611 29.4163 15.9204 29.3182 15.9204 29.2159C15.9204 29.1135 15.9611 29.0154 16.0334 28.943C16.1058 28.8707 16.2039 28.83 16.3063 28.83H17.4792C17.5815 28.83 17.6797 28.8707 17.752 28.943C17.8244 29.0154 17.865 29.1135 17.865 29.2159C17.865 29.3182 17.8244 29.4163 17.752 29.4887C17.6797 29.561 17.5815 29.6017 17.4792 29.6017Z" fill="#6A7BDE"/>
<path d="M18.2509 26.5408H16.3063C16.2039 26.5408 16.1058 26.5002 16.0334 26.4278C15.9611 26.3555 15.9204 26.2573 15.9204 26.155C15.9204 26.0527 15.9611 25.9545 16.0334 25.8822C16.1058 25.8098 16.2039 25.7692 16.3063 25.7692H18.2509C18.3532 25.7692 18.4514 25.8098 18.5237 25.8822C18.5961 25.9545 18.6367 26.0527 18.6367 26.155C18.6367 26.2573 18.5961 26.3555 18.5237 26.4278C18.4514 26.5002 18.3532 26.5408 18.2509 26.5408Z" fill="#6A7BDE"/>
<path d="M17.4792 23.4796H16.3063C16.2039 23.4796 16.1058 23.439 16.0334 23.3666C15.9611 23.2943 15.9204 23.1961 15.9204 23.0938C15.9204 22.9915 15.9611 22.8933 16.0334 22.821C16.1058 22.7486 16.2039 22.7079 16.3063 22.7079H17.4792C17.5815 22.7079 17.6797 22.7486 17.752 22.821C17.8244 22.8933 17.865 22.9915 17.865 23.0938C17.865 23.1961 17.8244 23.2943 17.752 23.3666C17.6797 23.439 17.5815 23.4796 17.4792 23.4796Z" fill="#6A7BDE"/>
<path d="M18.2509 20.4187H16.3063C16.2039 20.4187 16.1058 20.3781 16.0334 20.3057C15.9611 20.2333 15.9204 20.1352 15.9204 20.0329C15.9204 19.9305 15.9611 19.8324 16.0334 19.76C16.1058 19.6877 16.2039 19.647 16.3063 19.647H18.2509C18.3532 19.647 18.4514 19.6877 18.5237 19.76C18.5961 19.8324 18.6367 19.9305 18.6367 20.0329C18.6367 20.1352 18.5961 20.2333 18.5237 20.3057C18.4514 20.3781 18.3532 20.4187 18.2509 20.4187Z" fill="#6A7BDE"/>
</svg>
