<svg width="55" height="55" viewBox="0 0 55 55" fill="none" xmlns="http://www.w3.org/2000/svg">
<rect width="55" height="55" rx="10" fill="#FFEDE4"/>
<path d="M40.6286 29.3C40.5301 29.3 40.4356 29.2609 40.3659 29.1912C40.2963 29.1216 40.2571 29.0271 40.2571 28.9286V27.8403C40.2571 27.7418 40.2963 27.6473 40.3659 27.5777C40.4356 27.508 40.5301 27.4689 40.6286 27.4689C40.7271 27.4689 40.8215 27.508 40.8912 27.5777C40.9609 27.6473 41 27.7418 41 27.8403V28.9286C41 29.0271 40.9609 29.1216 40.8912 29.1912C40.8215 29.2609 40.7271 29.3 40.6286 29.3Z" fill="#FF793F"/>
<path d="M39.8857 41H16.1143C15.8188 41 15.5353 40.8826 15.3264 40.6736C15.1174 40.4647 15 40.1812 15 39.8857V16.1143C15 15.8188 15.1174 15.5353 15.3264 15.3264C15.5353 15.1174 15.8188 15 16.1143 15H39.8857C40.1812 15 40.4647 15.1174 40.6736 15.3264C40.8826 15.5353 41 15.8188 41 16.1143V25.2366C41 25.3351 40.9609 25.4296 40.8912 25.4992C40.8216 25.5689 40.7271 25.608 40.6286 25.608C40.5301 25.608 40.4356 25.5689 40.3659 25.4992C40.2963 25.4296 40.2571 25.3351 40.2571 25.2366V16.1143C40.2571 16.0158 40.218 15.9213 40.1484 15.8516C40.0787 15.782 39.9842 15.7429 39.8857 15.7429H16.1143C16.0158 15.7429 15.9213 15.782 15.8516 15.8516C15.782 15.9213 15.7429 16.0158 15.7429 16.1143V39.8857C15.7429 39.9842 15.782 40.0787 15.8516 40.1483C15.9213 40.218 16.0158 40.2571 16.1143 40.2571H39.8857C39.9842 40.2571 40.0787 40.218 40.1484 40.1483C40.218 40.0787 40.2571 39.9842 40.2571 39.8857V35.2206C40.2571 35.1221 40.2963 35.0276 40.3659 34.9579C40.4356 34.8883 40.5301 34.8491 40.6286 34.8491C40.7271 34.8491 40.8216 34.8883 40.8912 34.9579C40.9609 35.0276 41 35.1221 41 35.2206V39.8857C41 40.1812 40.8826 40.4647 40.6736 40.6736C40.4647 40.8826 40.1812 41 39.8857 41Z" fill="#FF793F"/>
<path d="M40.6286 32.992C40.5301 32.992 40.4356 32.9529 40.3659 32.8832C40.2963 32.8136 40.2571 32.7191 40.2571 32.6206V31.5286C40.2571 31.4301 40.2963 31.3356 40.3659 31.266C40.4356 31.1963 40.5301 31.1572 40.6286 31.1572C40.7271 31.1572 40.8215 31.1963 40.8912 31.266C40.9609 31.3356 41 31.4301 41 31.5286V32.6206C41 32.7191 40.9609 32.8136 40.8912 32.8832C40.8215 32.9529 40.7271 32.992 40.6286 32.992Z" fill="#FF793F"/>
<path d="M40.6286 21.3143H15.3714C15.2729 21.3143 15.1784 21.2752 15.1088 21.2055C15.0391 21.1359 15 21.0414 15 20.9429C15 20.8444 15.0391 20.7499 15.1088 20.6803C15.1784 20.6106 15.2729 20.5715 15.3714 20.5715H40.6286C40.7271 20.5715 40.8216 20.6106 40.8912 20.6803C40.9609 20.7499 41 20.8444 41 20.9429C41 21.0414 40.9609 21.1359 40.8912 21.2055C40.8216 21.2752 40.7271 21.3143 40.6286 21.3143Z" fill="#FF793F"/>
<path d="M18.624 19.5508C18.3484 19.5508 18.0789 19.469 17.8498 19.3159C17.6206 19.1628 17.442 18.9451 17.3365 18.6905C17.231 18.4358 17.2034 18.1556 17.2572 17.8853C17.311 17.6149 17.4437 17.3666 17.6386 17.1717C17.8335 16.9768 18.0818 16.8441 18.3521 16.7903C18.6225 16.7366 18.9027 16.7642 19.1573 16.8696C19.412 16.9751 19.6296 17.1537 19.7827 17.3829C19.9359 17.6121 20.0176 17.8815 20.0176 18.1572C20.0172 18.5266 19.8703 18.8809 19.609 19.1421C19.3477 19.4034 18.9935 19.5504 18.624 19.5508ZM18.624 17.5079C18.4952 17.5079 18.3694 17.5461 18.2623 17.6177C18.1553 17.6892 18.0719 17.791 18.0227 17.91C17.9735 18.0289 17.9607 18.1599 17.9859 18.2861C18.0111 18.4124 18.0732 18.5284 18.1644 18.6193C18.2555 18.7103 18.3716 18.7721 18.498 18.7971C18.6243 18.822 18.7552 18.8089 18.8741 18.7594C18.9929 18.7099 19.0945 18.6263 19.1658 18.5191C19.2371 18.4119 19.275 18.2859 19.2748 18.1572C19.2746 17.9846 19.2059 17.8192 19.0839 17.6972C18.9619 17.5752 18.7965 17.5066 18.624 17.5064V17.5079Z" fill="#FF793F"/>
<path d="M22.413 19.5508C22.1373 19.5508 21.8679 19.469 21.6387 19.3159C21.4095 19.1628 21.2309 18.9451 21.1254 18.6905C21.02 18.4358 20.9924 18.1556 21.0461 17.8853C21.0999 17.6149 21.2326 17.3666 21.4275 17.1717C21.6224 16.9768 21.8708 16.8441 22.1411 16.7903C22.4114 16.7366 22.6916 16.7642 22.9463 16.8696C23.2009 16.9751 23.4186 17.1537 23.5717 17.3829C23.7248 17.6121 23.8066 17.8815 23.8066 18.1572C23.8061 18.5266 23.6591 18.8808 23.3978 19.142C23.1366 19.4033 22.7824 19.5503 22.413 19.5508ZM22.413 17.5079C22.2842 17.5079 22.1583 17.5461 22.0513 17.6177C21.9442 17.6892 21.8608 17.791 21.8116 17.91C21.7624 18.0289 21.7496 18.1599 21.7748 18.2861C21.8001 18.4124 21.8622 18.5284 21.9533 18.6193C22.0445 18.7103 22.1606 18.7721 22.2869 18.7971C22.4133 18.822 22.5441 18.8089 22.663 18.7594C22.7819 18.7099 22.8834 18.6263 22.9548 18.5191C23.0261 18.4119 23.064 18.2859 23.0637 18.1572C23.0635 17.9846 22.9949 17.8192 22.8729 17.6972C22.7509 17.5752 22.5855 17.5066 22.413 17.5064V17.5079Z" fill="#FF793F"/>
<path d="M26.2019 19.5508C25.9263 19.5508 25.6568 19.469 25.4276 19.3159C25.1985 19.1628 25.0198 18.9451 24.9144 18.6905C24.8089 18.4358 24.7813 18.1556 24.8351 17.8853C24.8888 17.6149 25.0216 17.3666 25.2165 17.1717C25.4114 16.9768 25.6597 16.8441 25.93 16.7903C26.2003 16.7366 26.4805 16.7642 26.7352 16.8696C26.9898 16.9751 27.2075 17.1537 27.3606 17.3829C27.5138 17.6121 27.5955 17.8815 27.5955 18.1572C27.595 18.5266 27.448 18.8808 27.1868 19.142C26.9255 19.4033 26.5713 19.5503 26.2019 19.5508ZM26.2019 17.5079C26.0731 17.5079 25.9472 17.5461 25.8402 17.6177C25.7332 17.6892 25.6497 17.791 25.6005 17.91C25.5513 18.0289 25.5385 18.1599 25.5638 18.2861C25.589 18.4124 25.6511 18.5284 25.7423 18.6193C25.8334 18.7103 25.9495 18.7721 26.0758 18.7971C26.2022 18.822 26.3331 18.8089 26.4519 18.7594C26.5708 18.7099 26.6724 18.6263 26.7437 18.5191C26.815 18.4119 26.8529 18.2859 26.8526 18.1572C26.8524 17.9846 26.7838 17.8192 26.6618 17.6972C26.5398 17.5752 26.3744 17.5066 26.2019 17.5064V17.5079Z" fill="#FF793F"/>
<path d="M38.4 18.5286H29.5229C29.4243 18.5286 29.3299 18.4894 29.2602 18.4198C29.1906 18.3501 29.1514 18.2556 29.1514 18.1571C29.1514 18.0586 29.1906 17.9642 29.2602 17.8945C29.3299 17.8248 29.4243 17.7857 29.5229 17.7857H38.4C38.4985 17.7857 38.593 17.8248 38.6626 17.8945C38.7323 17.9642 38.7714 18.0586 38.7714 18.1571C38.7714 18.2556 38.7323 18.3501 38.6626 18.4198C38.593 18.4894 38.4985 18.5286 38.4 18.5286Z" fill="#FF793F"/>
<path d="M28.0037 38.2106C26.5352 38.2106 25.0997 37.7752 23.8787 36.9593C22.6576 36.1435 21.706 34.9838 21.144 33.6271C20.582 32.2704 20.435 30.7775 20.7215 29.3372C21.008 27.897 21.7151 26.574 22.7535 25.5356C23.7919 24.4972 25.1149 23.7901 26.5552 23.5036C27.9955 23.2171 29.4883 23.3641 30.8451 23.9261C32.2018 24.4881 33.3614 25.4397 34.1772 26.6607C34.9931 27.8817 35.4285 29.3173 35.4285 30.7858C35.4264 32.7543 34.6434 34.6416 33.2515 36.0335C31.8595 37.4255 29.9722 38.2085 28.0037 38.2106ZM28.0037 24.1038C26.6821 24.1038 25.3902 24.4957 24.2914 25.2299C23.1925 25.9641 22.3361 27.0077 21.8303 28.2287C21.3246 29.4496 21.1923 30.7932 21.4501 32.0894C21.7079 33.3855 22.3443 34.5762 23.2788 35.5106C24.2133 36.4451 25.4039 37.0815 26.7001 37.3394C27.9963 37.5972 29.3398 37.4649 30.5608 36.9591C31.7818 36.4534 32.8253 35.5969 33.5596 34.4981C34.2938 33.3992 34.6857 32.1073 34.6857 30.7858C34.6837 29.0142 33.9791 27.3157 32.7264 26.063C31.4737 24.8104 29.7753 24.1057 28.0037 24.1038Z" fill="#FF793F"/>
<path d="M28.0037 38.2106C26.0619 38.2106 24.5409 34.949 24.5409 30.7857C24.5409 26.6224 26.0619 23.3608 28.0037 23.3608C29.9455 23.3608 31.4665 26.6224 31.4665 30.7857C31.4665 34.949 29.9452 38.2106 28.0037 38.2106ZM28.0037 24.1037C26.69 24.1037 25.2837 26.7888 25.2837 30.7857C25.2837 34.7826 26.69 37.4677 28.0037 37.4677C29.3174 37.4677 30.7237 34.7826 30.7237 30.7857C30.7237 26.7888 29.3174 24.1037 28.0037 24.1037Z" fill="#FF793F"/>
<path d="M28.0037 38.2106C27.9052 38.2106 27.8107 38.1714 27.741 38.1018C27.6714 38.0321 27.6323 37.9376 27.6323 37.8391V23.7323C27.6323 23.6338 27.6714 23.5393 27.741 23.4696C27.8107 23.4 27.9052 23.3608 28.0037 23.3608C28.1022 23.3608 28.1967 23.4 28.2663 23.4696C28.336 23.5393 28.3751 23.6338 28.3751 23.7323V37.8391C28.3751 37.9376 28.336 38.0321 28.2663 38.1018C28.1967 38.1714 28.1022 38.2106 28.0037 38.2106Z" fill="#FF793F"/>
<path d="M35.0571 31.1572H20.9507C20.8521 31.1572 20.7577 31.1181 20.688 31.0484C20.6184 30.9788 20.5792 30.8843 20.5792 30.7858C20.5792 30.6873 20.6184 30.5928 20.688 30.5232C20.7577 30.4535 20.8521 30.4144 20.9507 30.4144H35.0571C35.1556 30.4144 35.2501 30.4535 35.3198 30.5232C35.3894 30.5928 35.4286 30.6873 35.4286 30.7858C35.4286 30.8843 35.3894 30.9788 35.3198 31.0484C35.2501 31.1181 35.1556 31.1572 35.0571 31.1572Z" fill="#FF793F"/>
<path d="M34.11 27.6286H21.8974C21.7989 27.6286 21.7044 27.5895 21.6348 27.5198C21.5651 27.4502 21.526 27.3557 21.526 27.2572C21.526 27.1587 21.5651 27.0642 21.6348 26.9945C21.7044 26.9249 21.7989 26.8857 21.8974 26.8857H34.11C34.2085 26.8857 34.3029 26.9249 34.3726 26.9945C34.4423 27.0642 34.4814 27.1587 34.4814 27.2572C34.4814 27.3557 34.4423 27.4502 34.3726 27.5198C34.3029 27.5895 34.2085 27.6286 34.11 27.6286Z" fill="#FF793F"/>
<path d="M34.11 34.6858H21.8974C21.7989 34.6858 21.7044 34.6467 21.6348 34.577C21.5651 34.5073 21.526 34.4129 21.526 34.3144C21.526 34.2159 21.5651 34.1214 21.6348 34.0517C21.7044 33.9821 21.7989 33.9429 21.8974 33.9429H34.11C34.2085 33.9429 34.3029 33.9821 34.3726 34.0517C34.4423 34.1214 34.4814 34.2159 34.4814 34.3144C34.4814 34.4129 34.4423 34.5073 34.3726 34.577C34.3029 34.6467 34.2085 34.6858 34.11 34.6858Z" fill="#FF793F"/>
</svg>
