<svg width="55" height="55" viewBox="0 0 55 55" fill="none" xmlns="http://www.w3.org/2000/svg">
<rect width="55" height="55" rx="10" fill="#E0F4E4"/>
<path d="M28.5897 41H25.4103C25.2402 40.9988 25.0755 40.9397 24.9434 40.8325C24.8113 40.7253 24.7196 40.5764 24.6834 40.4102L24.3391 38.6916C23.2771 38.4271 22.2607 38.005 21.3238 37.4391L19.8663 38.4082C19.7246 38.5029 19.5545 38.5459 19.3848 38.5301C19.215 38.5143 19.0559 38.4405 18.9341 38.3213L16.6862 36.07C16.565 35.9472 16.4901 35.7861 16.4744 35.6143C16.4587 35.4425 16.5031 35.2705 16.6 35.1277L17.5657 33.6791C16.9987 32.7422 16.5768 31.7249 16.3144 30.6617L14.5943 30.3177C14.4272 30.2821 14.2773 30.1905 14.1692 30.0582C14.0612 29.9258 14.0015 29.7606 14 29.5897V26.4103C14.0012 26.2402 14.0603 26.0755 14.1675 25.9434C14.2747 25.8114 14.4236 25.7196 14.5898 25.6834L16.3118 25.338C16.5742 24.2749 16.996 23.2577 17.5627 22.3209L16.5918 20.8686C16.4969 20.7267 16.4538 20.5565 16.4696 20.3866C16.4854 20.2167 16.5593 20.0574 16.6787 19.9355L18.93 17.6847C19.0526 17.5633 19.2135 17.4882 19.3852 17.4722C19.557 17.4562 19.729 17.5003 19.8719 17.597L21.3205 18.5646C22.258 17.9978 23.2753 17.575 24.3383 17.3103L24.6823 15.5943C24.7179 15.4272 24.8095 15.2773 24.9418 15.1692C25.0742 15.0612 25.2394 15.0015 25.4103 15H28.5897C28.7598 15.0012 28.9245 15.0603 29.0566 15.1675C29.1887 15.2747 29.2804 15.4236 29.3166 15.5898L29.6609 17.3084C30.7258 17.572 31.7446 17.9951 32.6829 18.5635L34.1314 17.5922C34.2731 17.4969 34.4434 17.4535 34.6134 17.4693C34.7835 17.4852 34.9428 17.5593 35.0645 17.6791L37.3157 19.93C37.4375 20.0523 37.5128 20.2133 37.5288 20.3852C37.5448 20.5571 37.5005 20.7292 37.4033 20.8719L36.4376 22.3238C37.0037 23.2604 37.4259 24.2767 37.6901 25.3387L39.4027 25.6823C39.5704 25.7173 39.721 25.8086 39.8296 25.9411C39.9383 26.0735 39.9984 26.239 40 26.4103V29.5897C39.9988 29.7598 39.9397 29.9245 39.8325 30.0566C39.7253 30.1887 39.5764 30.2804 39.4102 30.3166L37.6916 30.6613C37.4274 31.7233 37.0052 32.7396 36.4391 33.6762L37.4085 35.1337C37.5032 35.2755 37.5462 35.4455 37.5303 35.6153C37.5144 35.785 37.4406 35.9442 37.3213 36.0659L35.07 38.3172C34.9473 38.4384 34.7865 38.5134 34.6147 38.5293C34.443 38.5453 34.271 38.5013 34.1281 38.4048L32.6795 37.4365C31.7418 38.0047 30.7236 38.4278 29.6594 38.6916L29.3177 40.4057C29.2821 40.5728 29.1905 40.7228 29.0582 40.8308C28.9258 40.9388 28.7606 40.9985 28.5897 41ZM21.3171 36.6257C21.3867 36.6255 21.4548 36.6451 21.5136 36.6821C22.5038 37.3111 23.5951 37.7646 24.7395 38.0226C24.8095 38.0385 24.8734 38.0743 24.9235 38.1257C24.9736 38.1771 25.0077 38.2419 25.0218 38.3123L25.4107 40.2571H28.5864L28.9793 38.3123C28.9934 38.2419 29.0276 38.177 29.0777 38.1256C29.1279 38.0742 29.1919 38.0384 29.262 38.0226C30.4064 37.7659 31.4975 37.3125 32.4867 36.6825C32.5484 36.6448 32.6194 36.6252 32.6917 36.6261C32.764 36.6269 32.8346 36.6482 32.8953 36.6873L34.5441 37.7905L36.7905 35.5448L35.7074 33.9198C35.6934 33.9029 35.681 33.8848 35.6703 33.8656C35.6379 33.8075 35.6218 33.7419 35.6235 33.6754C35.6252 33.609 35.6447 33.5442 35.6799 33.4879C36.3091 32.4977 36.7626 31.4064 37.0204 30.262C37.0362 30.192 37.072 30.1281 37.1235 30.078C37.1749 30.0279 37.2397 29.9937 37.3101 29.9797L39.2571 29.5893V26.4103L37.3123 26.0203C37.2419 26.0063 37.1771 25.9721 37.1257 25.922C37.0743 25.8719 37.0385 25.808 37.0226 25.738C36.7648 24.5936 36.3113 23.5023 35.6821 22.5121C35.6466 22.456 35.6268 22.3913 35.6248 22.3248C35.6227 22.2584 35.6386 22.1926 35.6706 22.1344C35.6836 22.1107 35.6991 22.0885 35.7171 22.0683L36.7897 20.4552L34.5445 18.208L32.8968 19.3127C32.8361 19.3518 32.7655 19.3731 32.6932 19.3739C32.6209 19.3748 32.5499 19.3552 32.4882 19.3175C31.499 18.6875 30.4079 18.2341 29.2635 17.9774C29.1934 17.9616 29.1294 17.9258 29.0792 17.8744C29.0291 17.823 28.9949 17.7581 28.9808 17.6877L28.5893 15.7429H25.4103L25.0207 17.6877C25.0066 17.7581 24.9725 17.8229 24.9224 17.8743C24.8723 17.9257 24.8084 17.9615 24.7384 17.9774C23.594 18.2354 22.5027 18.6889 21.5125 19.3179C21.4518 19.3563 21.3812 19.3763 21.3094 19.3755C21.2375 19.3746 21.1674 19.3529 21.1077 19.313L19.4548 18.2099L17.208 20.4552L18.313 22.1073C18.3529 22.1671 18.3746 22.2371 18.3755 22.309C18.3763 22.3809 18.3563 22.4514 18.3179 22.5121C17.6889 23.5016 17.2365 24.5927 16.9807 25.7369C16.9643 25.8109 16.9256 25.8782 16.8698 25.9296C16.814 25.981 16.7439 26.014 16.6687 26.0244L14.7429 26.4107V29.5897L16.6813 29.9782C16.7538 29.991 16.8208 30.0249 16.8741 30.0755C16.9274 30.1262 16.9646 30.1914 16.9811 30.2631C17.2369 31.4073 17.6893 32.4984 18.3182 33.4879C18.3567 33.5485 18.3767 33.619 18.3759 33.6908C18.3751 33.7625 18.3535 33.8326 18.3138 33.8923L17.2143 35.5448L19.4559 37.7923L21.0809 36.7085C21.1477 36.655 21.2308 36.6258 21.3164 36.6257H21.3171Z" fill="#3DD457"/>
<path d="M33.701 25.1846C33.6303 25.1846 33.5612 25.1645 33.5016 25.1266C33.4419 25.0887 33.3944 25.0346 33.3644 24.9706C33.2089 24.6423 33.0274 24.3268 32.8218 24.0272C32.7662 23.9458 32.7453 23.8457 32.7635 23.7489C32.7818 23.6521 32.8377 23.5665 32.9191 23.5109C33.0005 23.4554 33.1006 23.4344 33.1974 23.4527C33.2942 23.4709 33.3798 23.5269 33.4354 23.6082C33.6637 23.9411 33.8648 24.2919 34.0367 24.6572C34.0784 24.7463 34.083 24.8484 34.0495 24.9409C34.016 25.0335 33.9472 25.109 33.8581 25.1508C33.8089 25.1736 33.7552 25.1851 33.701 25.1846Z" fill="#3DD457"/>
<path d="M27 35.7888C24.9343 35.7888 22.9531 34.9682 21.4925 33.5075C20.0318 32.0468 19.2112 30.0657 19.2112 28C19.2112 25.9342 20.0318 23.9531 21.4925 22.4924C22.9531 21.0317 24.9343 20.2111 27 20.2111C27.2229 20.2111 27.422 20.22 27.6121 20.239C27.7073 20.2479 27.7955 20.2931 27.8582 20.3654C27.9209 20.4376 27.9533 20.5312 27.9486 20.6267C27.9454 20.6768 27.9322 20.7258 27.9098 20.7707C27.8874 20.8156 27.8563 20.8556 27.8182 20.8883C27.7802 20.9211 27.736 20.9459 27.6882 20.9613C27.6404 20.9767 27.5901 20.9824 27.5401 20.9781C27.3744 20.9618 27.198 20.954 27.0011 20.954C25.607 20.9534 24.244 21.3663 23.0845 22.1404C21.9251 22.9146 21.0213 24.0152 20.4875 25.3031C19.9536 26.591 19.8137 28.0083 20.0855 29.3757C20.3572 30.7431 21.0284 31.9991 22.0142 32.985C22.9999 33.9709 24.2559 34.6423 25.6232 34.9143C26.9906 35.1863 28.4079 35.0466 29.6958 34.513C30.9838 33.9793 32.0846 33.0757 32.8589 31.9164C33.6333 30.757 34.0464 29.3941 34.046 28C34.0474 27.7009 34.0277 27.4022 33.9869 27.1059C33.9779 27.0568 33.9789 27.0064 33.9899 26.9576C34.0008 26.9089 34.0215 26.8628 34.0506 26.8222C34.0798 26.7817 34.1168 26.7474 34.1595 26.7215C34.2022 26.6955 34.2497 26.6785 34.2991 26.6713C34.3486 26.6642 34.399 26.6671 34.4473 26.6799C34.4956 26.6926 34.5408 26.715 34.5802 26.7457C34.6197 26.7763 34.6525 26.8146 34.6768 26.8583C34.7011 26.9019 34.7164 26.95 34.7216 26.9997C34.7679 27.3311 34.7904 27.6654 34.7889 28C34.7893 29.0229 34.5881 30.0359 34.1968 30.9811C33.8055 31.9263 33.2318 32.7851 32.5084 33.5084C31.7851 34.2317 30.9263 34.8055 29.9811 35.1967C29.036 35.588 28.023 35.7892 27 35.7888Z" fill="#3DD457"/>
<path d="M31.2971 22.3283C31.2178 22.3279 31.1408 22.3018 31.0775 22.254C30.7966 22.0491 30.4983 21.869 30.1861 21.7158C30.0978 21.6721 30.0305 21.5951 29.9989 21.5018C29.9674 21.4084 29.9742 21.3064 30.0179 21.2181C30.0615 21.1298 30.1385 21.0624 30.2319 21.0309C30.3252 20.9993 30.4273 21.0061 30.5156 21.0498C30.8669 21.2222 31.2025 21.425 31.5184 21.656C31.5806 21.7026 31.6266 21.7677 31.6499 21.8418C31.6732 21.916 31.6727 21.9957 31.6483 22.0695C31.6239 22.1434 31.577 22.2077 31.5141 22.2535C31.4512 22.2992 31.3756 22.3241 31.2978 22.3246L31.2971 22.3283Z" fill="#3DD457"/>
<path d="M33.311 32.2715C33.2477 32.2715 33.1855 32.2553 33.1303 32.2246C33.075 32.1938 33.0286 32.1495 32.9952 32.0958C32.3635 31.074 31.4811 30.2307 30.4319 29.6458C29.3826 29.0609 28.2013 28.7539 27 28.7539C25.7987 28.7539 24.6174 29.0609 23.5681 29.6458C22.5189 30.2307 21.6365 31.074 21.0048 32.0958C20.9791 32.1372 20.9455 32.1732 20.9058 32.2017C20.8662 32.2302 20.8214 32.2505 20.7739 32.2617C20.7264 32.2728 20.6772 32.2745 20.629 32.2666C20.5809 32.2587 20.5348 32.2414 20.4933 32.2157C20.4519 32.19 20.4159 32.1564 20.3874 32.1168C20.3589 32.0772 20.3386 32.0324 20.3274 31.9849C20.3163 31.9374 20.3146 31.8881 20.3225 31.84C20.3304 31.7919 20.3476 31.7457 20.3734 31.7043C21.0717 30.5751 22.047 29.6431 23.2067 28.9968C24.3664 28.3504 25.672 28.0112 26.9996 28.0112C28.3273 28.0112 29.6329 28.3504 30.7926 28.9968C31.9523 29.6431 32.9276 30.5751 33.6259 31.7043C33.6608 31.7605 33.68 31.825 33.6816 31.8912C33.6832 31.9573 33.667 32.0227 33.6349 32.0805C33.6027 32.1383 33.5557 32.1865 33.4987 32.2201C33.4417 32.2537 33.3767 32.2714 33.3106 32.2715H33.311Z" fill="#3DD457"/>
<path d="M27 28.7562C26.4677 28.7562 25.9475 28.5984 25.5049 28.3027C25.0624 28.007 24.7175 27.5867 24.5138 27.0949C24.3101 26.6032 24.2569 26.0621 24.3607 25.5401C24.4646 25.0181 24.7209 24.5386 25.0973 24.1623C25.4737 23.7859 25.9532 23.5297 26.4752 23.4259C26.9973 23.3221 27.5383 23.3754 28.0301 23.5792C28.5218 23.7829 28.942 24.1279 29.2377 24.5704C29.5333 25.013 29.6911 25.5333 29.691 26.0656C29.6901 26.779 29.4063 27.4629 28.9018 27.9673C28.3973 28.4717 27.7134 28.7554 27 28.7562ZM27 24.1174C26.6147 24.1174 26.238 24.2317 25.9177 24.4458C25.5973 24.6598 25.3476 24.9641 25.2001 25.3201C25.0527 25.676 25.0141 26.0677 25.0893 26.4456C25.1645 26.8235 25.35 27.1707 25.6224 27.4431C25.8949 27.7156 26.242 27.9011 26.6199 27.9763C26.9978 28.0515 27.3895 28.0129 27.7455 27.8654C28.1015 27.718 28.4057 27.4683 28.6198 27.1479C28.8339 26.8275 28.9481 26.4509 28.9481 26.0656C28.9476 25.5491 28.7422 25.0538 28.377 24.6886C28.0118 24.3233 27.5165 24.1179 27 24.1174Z" fill="#3DD457"/>
</svg>
