<svg width="55" height="55" viewBox="0 0 55 55" fill="none" xmlns="http://www.w3.org/2000/svg">
<rect width="55" height="55" rx="10" fill="#EBEEFF"/>
<path d="M35.6957 28.1613C35.6248 28.1612 35.5552 28.1411 35.4951 28.1034C35.435 28.0657 35.3867 28.0119 35.3557 27.948C35.3247 27.8841 35.3123 27.8129 35.3199 27.7423C35.3275 27.6717 35.3548 27.6047 35.3987 27.5489C35.6299 27.2541 35.8528 26.9593 36.067 26.6641C36.1265 26.5846 36.2148 26.5317 36.3129 26.5167C36.4111 26.5017 36.5112 26.5259 36.5916 26.5841C36.6721 26.6422 36.7265 26.7296 36.7431 26.8275C36.7597 26.9254 36.7372 27.0259 36.6805 27.1073C36.4617 27.41 36.2316 27.7128 35.994 28.0156C35.9586 28.0609 35.9133 28.0976 35.8617 28.1228C35.81 28.1481 35.7533 28.1612 35.6957 28.1613Z" fill="#7241FB"/>
<path d="M25.7052 35.8248C25.6048 35.8248 25.5086 35.7849 25.4376 35.7139L18.777 29.0533C18.7212 28.9975 18.6843 28.9257 18.6713 28.8479C18.6583 28.77 18.67 28.6901 18.7047 28.6192C19.2272 27.5506 19.8029 26.5088 20.4297 25.4978C21.2578 24.1436 22.1935 22.8583 23.2279 21.6543C27.2307 17.0074 31.59 15.1966 34.5422 14.4957C36.3516 14.0278 38.2304 13.8896 40.0887 14.0877C40.1677 14.1003 40.2406 14.1375 40.2971 14.194C40.3536 14.2506 40.3908 14.3236 40.4032 14.4026C40.4342 14.5979 41.1272 19.2508 38.1522 24.7648C38.1026 24.8493 38.0221 24.9112 37.9278 24.9375C37.8334 24.9639 37.7325 24.9526 37.6462 24.9061C37.56 24.8596 37.4952 24.7814 37.4654 24.6881C37.4356 24.5948 37.4432 24.4935 37.4865 24.4056C39.1172 21.4794 39.8806 18.1492 39.6876 14.8049C38.1276 14.6698 30.4342 14.4484 23.8016 22.149C22.7935 23.3226 21.8815 24.5755 21.0745 25.8956C20.5175 26.7925 19.9903 27.7375 19.5051 28.7093L25.7809 34.9869C26.755 34.5006 27.7 33.9735 28.5935 33.4183C29.9133 32.6108 31.1662 31.6987 32.3401 30.6908C32.7783 30.3154 33.2196 29.9082 33.6533 29.4798C33.7249 29.4111 33.8207 29.3733 33.92 29.3746C34.0192 29.3758 34.114 29.416 34.1839 29.4865C34.2538 29.557 34.2932 29.6522 34.2936 29.7514C34.294 29.8507 34.2554 29.9461 34.1861 30.0172C33.7396 30.46 33.2847 30.8801 32.8339 31.2661C31.6295 32.2999 30.3441 33.2354 28.9901 34.0635C27.9795 34.69 26.9381 35.2655 25.8698 35.7877C25.8185 35.8124 25.7622 35.8251 25.7052 35.8248Z" fill="#7241FB"/>
<path d="M39.1744 21.822C39.074 21.822 38.9778 21.7821 38.9068 21.7111L32.7794 15.5841C32.7084 15.5131 32.6685 15.4168 32.6685 15.3165C32.6684 15.2161 32.7083 15.1198 32.7792 15.0488C32.8502 14.9778 32.9465 14.9378 33.0468 14.9378C33.1472 14.9378 33.2435 14.9776 33.3145 15.0486L39.4423 21.176C39.4952 21.2289 39.5313 21.2964 39.5459 21.3698C39.5604 21.4432 39.5529 21.5194 39.5242 21.5885C39.4956 21.6577 39.447 21.7168 39.3847 21.7583C39.3224 21.7999 39.2492 21.822 39.1744 21.822Z" fill="#7241FB"/>
<path d="M31.2025 26.4863C30.6765 26.4863 30.1586 26.3565 29.6947 26.1085C29.2308 25.8604 28.8353 25.5019 28.5431 25.0645C28.2509 24.6271 28.0711 24.1244 28.0196 23.6009C27.9681 23.0774 28.0465 22.5493 28.2479 22.0634C28.4492 21.5774 28.7673 21.1486 29.1739 20.815C29.5806 20.4813 30.0632 20.2531 30.5791 20.1505C31.095 20.0479 31.6283 20.0742 32.1316 20.2269C32.635 20.3797 33.0929 20.6542 33.4648 21.0261C33.9123 21.4734 34.2171 22.0434 34.3405 22.664C34.464 23.2845 34.4006 23.9278 34.1584 24.5123C33.9163 25.0968 33.5061 25.5964 32.9799 25.9478C32.4538 26.2992 31.8352 26.4866 31.2025 26.4863ZM31.2025 20.8475C30.6382 20.8482 30.0916 21.0445 29.6558 21.403C29.22 21.7615 28.9219 22.26 28.8124 22.8135C28.7029 23.3671 28.7887 23.9415 29.0552 24.4389C29.3216 24.9363 29.7523 25.326 30.2738 25.5415C30.7954 25.757 31.3755 25.7851 31.9153 25.6209C32.4552 25.4566 32.9215 25.1104 33.2347 24.641C33.5479 24.1716 33.6887 23.6081 33.6331 23.0466C33.5775 22.485 33.3289 21.9601 32.9297 21.5613C32.703 21.3344 32.4337 21.1546 32.1373 21.0321C31.8409 20.9096 31.5232 20.8469 31.2025 20.8475Z" fill="#7241FB"/>
<path d="M14.823 26.2347C14.7682 26.2347 14.714 26.2227 14.6642 26.1997C14.6144 26.1767 14.5702 26.1431 14.5347 26.1013C14.4992 26.0595 14.4731 26.0105 14.4584 25.9577C14.4437 25.9048 14.4407 25.8494 14.4495 25.7953C14.587 24.947 14.9048 24.1381 15.3816 23.4232C16.2528 22.0867 17.6133 21.1449 19.171 20.8001C20.7288 20.4554 22.3596 20.735 23.7134 21.579C23.7948 21.6336 23.8519 21.7175 23.8726 21.8133C23.8934 21.909 23.8762 22.0091 23.8246 22.0924C23.7731 22.1757 23.6913 22.2358 23.5964 22.2601C23.5015 22.2843 23.4009 22.2708 23.3157 22.2224C22.1289 21.4819 20.6989 21.2366 19.3332 21.5391C17.9674 21.8416 16.7748 22.6679 16.0117 23.8402C15.7485 24.235 15.5398 24.6635 15.3911 25.1141C16.2693 24.7135 17.2303 24.5277 18.1946 24.5718C19.1589 24.616 20.0988 24.8889 20.9368 25.368C20.98 25.3926 21.0179 25.4255 21.0484 25.4647C21.0789 25.504 21.1013 25.5489 21.1145 25.5968C21.1276 25.6447 21.1312 25.6948 21.125 25.7441C21.1188 25.7934 21.1029 25.841 21.0783 25.8842C21.0537 25.9274 21.0209 25.9653 20.9816 25.9958C20.9424 26.0263 20.8975 26.0487 20.8496 26.0619C20.8016 26.075 20.7516 26.0786 20.7023 26.0724C20.6529 26.0662 20.6053 26.0504 20.5621 26.0258C19.7145 25.5409 18.7499 25.2982 17.7737 25.3242C16.7975 25.3502 15.8472 25.644 15.0266 26.1733C14.966 26.2128 14.8954 26.2341 14.823 26.2347Z" fill="#7241FB"/>
<path d="M28.6347 40.0463C28.5668 40.0463 28.5002 40.0279 28.4418 39.9933C28.3834 39.9586 28.3354 39.9088 28.3028 39.8492C28.2703 39.7896 28.2544 39.7224 28.2568 39.6545C28.2592 39.5866 28.2798 39.5207 28.3165 39.4635C28.8458 38.6428 29.1396 37.6925 29.1656 36.7162C29.1916 35.74 28.9489 34.7753 28.4641 33.9276C28.4144 33.8404 28.4014 33.737 28.4279 33.6402C28.4545 33.5434 28.5184 33.4611 28.6056 33.4114C28.6928 33.3617 28.7962 33.3487 28.893 33.3753C28.9898 33.4018 29.0721 33.4657 29.1218 33.553C29.6011 34.3909 29.8741 35.3308 29.9183 36.2952C29.9624 37.2595 29.7765 38.2205 29.3757 39.0987C29.8258 38.9502 30.2538 38.7417 30.6481 38.4788C31.8204 37.7156 32.6467 36.5232 32.9495 35.1576C33.2524 33.7919 33.0076 32.362 32.2678 31.1748C32.2391 31.1326 32.2193 31.0849 32.2095 31.0348C32.1997 30.9847 32.2001 30.9331 32.2108 30.8831C32.2214 30.8332 32.2421 30.7859 32.2715 30.7442C32.301 30.7024 32.3385 30.667 32.382 30.6402C32.4255 30.6134 32.4739 30.5956 32.5244 30.588C32.5749 30.5804 32.6264 30.583 32.6759 30.5959C32.7253 30.6087 32.7717 30.6314 32.8121 30.6626C32.8525 30.6938 32.8862 30.7329 32.9112 30.7774C33.7556 32.1313 34.0356 33.7622 33.6909 35.3201C33.3462 36.8781 32.4045 38.2387 31.0678 39.11C30.3534 39.5864 29.5451 39.904 28.6976 40.0414C28.6768 40.0448 28.6558 40.0465 28.6347 40.0463Z" fill="#7241FB"/>
<path d="M19.5468 40.491C19.4719 40.491 19.3988 40.4688 19.3365 40.4272C19.2743 40.3856 19.2258 40.3265 19.1972 40.2574C19.1686 40.1882 19.1611 40.1121 19.1757 40.0387C19.1903 39.9653 19.2263 39.8979 19.2792 39.845L22.6095 36.5147C22.6809 36.4457 22.7765 36.4076 22.8757 36.4085C22.9749 36.4093 23.0699 36.4491 23.14 36.5193C23.2102 36.5895 23.25 36.6844 23.2508 36.7836C23.2517 36.8828 23.2136 36.9784 23.1446 37.0498L19.8143 40.3801C19.7434 40.4511 19.6471 40.491 19.5468 40.491Z" fill="#7241FB"/>
<path d="M14.8813 39.9881C14.8065 39.9881 14.7333 39.9659 14.6711 39.9243C14.6089 39.8827 14.5604 39.8236 14.5317 39.7545C14.5031 39.6853 14.4956 39.6092 14.5102 39.5358C14.5248 39.4624 14.5608 39.395 14.6137 39.3421L17.9441 36.0118C17.979 35.9756 18.0207 35.9468 18.0669 35.927C18.1131 35.9071 18.1627 35.8967 18.213 35.8963C18.2632 35.8958 18.3131 35.9054 18.3596 35.9244C18.4061 35.9435 18.4483 35.9716 18.4839 36.0071C18.5194 36.0426 18.5475 36.0849 18.5665 36.1314C18.5856 36.1779 18.5951 36.2277 18.5947 36.278C18.5943 36.3282 18.5838 36.3779 18.564 36.4241C18.5442 36.4702 18.5153 36.512 18.4792 36.5469L15.1489 39.8772C15.0779 39.9482 14.9817 39.9881 14.8813 39.9881Z" fill="#7241FB"/>
<path d="M14.3784 35.3222C14.3035 35.3222 14.2304 35.3 14.1682 35.2584C14.1059 35.2168 14.0574 35.1577 14.0288 35.0886C14.0002 35.0194 13.9927 34.9433 14.0073 34.8699C14.0219 34.7965 14.0579 34.7291 14.1108 34.6762L17.4411 31.3459C17.476 31.3097 17.5178 31.2809 17.564 31.2611C17.6101 31.2412 17.6598 31.2308 17.71 31.2304C17.7603 31.2299 17.8101 31.2395 17.8566 31.2585C17.9031 31.2776 17.9454 31.3057 17.9809 31.3412C18.0165 31.3767 18.0446 31.419 18.0636 31.4655C18.0826 31.512 18.0922 31.5618 18.0918 31.6121C18.0913 31.6623 18.0809 31.712 18.061 31.7582C18.0412 31.8043 18.0124 31.8461 17.9762 31.881L14.6459 35.2113C14.6109 35.2466 14.5692 35.2745 14.5233 35.2936C14.4773 35.3126 14.4281 35.3223 14.3784 35.3222Z" fill="#7241FB"/>
</svg>
